PathFileType	3	(X/Y/Z)	D:\minhoCalibration\240510\subject4_KPNP\preferred\preferred19.trc
DataRate	CameraRate	NumFrames	NumMarkers	Units	OrigDataRate	OrigDataStartFrame	OrigNumFrames
200.0	200.0	25	10	mm	200.0	209	95	
Frame#	Time	Left_Ankle_Outer1			Left_Ankle_Inner1			Left_Knee_Outer1			Left_Knee_Inner1			Left_Wrist1			Right_Wrist1			Right_Knee_Inner1			Right_Knee_Outer1			Right_Ankle_Inner1			Right_Ankle_Outer1			
		X1	Y1	Z1	X2	Y2	Z2	X3	Y3	Z3	X4	Y4	Z4	X5	Y5	Z5	X6	Y6	Z6	X7	Y7	Z7	X8	Y8	Z8	X9	Y9	Z9	X10	Y10	Z10	
209	1.035	-450.26013	1174.1685	264.81284	-429.85187	1069.9233	263.6138	-313.78964	1114.9509	761.1123	-333.24817	1023.2252	729.70795	-448.4902	1211.6616	1125.2263	-403.92929	920.02283	1352.4172	-345.79187	536.76282	1053.0421	-305.28461	549.26257	1155.3578	-527.34723	107.24043	1205.2134	-492.53009	116.95976	1249.694
210	1.04	-460.01117	1165.1284	264.91492	-426.89905	1064.3433	261.65692	-312.24106	1119.7795	762.06366	-327.16251	1031.9357	731.4082	-453.99042	1210.8212	1122.0173	-400.85654	919.66821	1347.9229	-345.4613	534.97449	1050.172	-305.65527	548.05933	1152.0833	-527.59753	107.26127	1204.9084	-492.36972	117.14003	1249.2146
211	1.045	-468.27222	1156.526	264.27902	-424.8584	1059.6953	262.41977	-312.90701	1125.8932	762.57141	-324.00684	1040.319	732.75208	-459.91919	1209.9242	1119.0674	-398.05862	918.97333	1343.1995	-344.61569	533.3526	1046.8845	-306.09973	547.00598	1149.2229	-526.95807	106.95137	1204.8777	-492.04211	117.49697	1248.8004
212	1.05	-475.26907	1147.7185	262.7356	-424.8652	1052.9421	261.1998	-316.84906	1134.5444	761.57452	-322.47598	1048.0721	733.32495	-466.0632	1208.7588	1116.4203	-395.70935	917.9632	1338.3007	-344.03537	531.64514	1043.4148	-307.00766	546.04663	1145.8746	-526.95447	107.2915	1204.8239	-491.64691	117.9509	1248.4865
213	1.055	-482.38428	1139.0106	261.94025	-424.46844	1048.1123	260.72238	-323.41037	1144.7979	760.37726	-321.84738	1055.4261	733.90649	-471.99835	1207.745	1113.8125	-393.841	916.71802	1333.1783	-344.6152	530.40204	1040.2216	-308.16293	545.36285	1142.7645	-526.94995	107.66775	1204.891	-491.16412	118.50303	1248.1541
214	1.06	-486.0444	1128.1946	259.63284	-424.51627	1042.4833	260.63153	-331.98178	1153.8832	759.30713	-320.78275	1062.3856	734.6322	-477.77228	1207.4554	1111.6348	-392.53281	915.32715	1327.6987	-345.51172	529.74622	1036.7297	-309.36044	544.83148	1139.4193	-526.55328	107.70561	1205.2351	-490.65869	119.22994	1247.825
215	1.065	-490.41156	1119.1185	258.74545	-424.29443	1036.7257	260.46494	-342.48526	1160.8877	757.35889	-318.42538	1069.7616	735.19666	-483.08032	1207.1604	1109.9266	-391.66489	913.83844	1321.7955	-346.6297	529.4425	1032.7756	-310.63867	544.5545	1136.0803	-526.86035	108.37659	1205.1003	-490.11948	120.00322	1247.1871
216	1.07	-494.17947	1109.5511	257.74295	-424.2196	1030.3999	259.72763	-354.63193	1165.4312	753.99054	-315.68121	1077.8853	735.24579	-488.23483	1207.3351	1109.0846	-390.99014	912.30994	1315.48	-348.05545	529.65985	1028.8584	-311.78568	544.56714	1132.4584	-526.46613	108.92083	1205.2319	-489.69254	120.78722	1246.5555
217	1.075	-497.17865	1099.5087	256.87949	-422.53241	1024.9786	260.19861	-367.69586	1167.0066	750.08588	-313.65158	1086.8485	735.02808	-492.95273	1208.2539	1108.7675	-389.96725	910.4986	1309.2977	-350.54828	530.21899	1025.0869	-312.77826	544.64343	1128.6233	-526.99011	109.45429	1204.8094	-489.23923	121.60051	1245.6406
218	1.08	-499.61401	1088.5814	255.90662	-421.66257	1018.5648	259.04251	-379.49777	1166.0232	746.99023	-313.17911	1094.6602	734.47626	-497.28708	1208.3904	1108.7301	-388.27344	908.33142	1304.5652	-353.0202	530.71906	1021.1811	-313.51068	544.87732	1124.4655	-526.7627	109.6548	1204.4669	-488.96484	122.31538	1244.8262
219	1.085	-501.68515	1077.6052	255.10323	-420.31116	1011.6514	258.54858	-390.65228	1163.9481	744.37469	-314.11093	1100.5691	734.04114	-501.064	1208.4186	1108.546	-386.69513	905.47333	1301.1685	-356.26208	531.35962	1017.749	-313.95465	545.19714	1119.9186	-526.87238	109.9858	1204.2616	-488.82025	122.91283	1243.906
220	1.09	-503.22897	1066.1008	254.23196	-419.54233	1003.6651	258.38657	-399.453	1161.2327	742.7077	-316.37296	1102.5637	733.46411	-504.77664	1207.8762	1108.2518	-385.22528	903.09412	1297.819	-359.26291	531.74835	1014.1522	-314.09009	545.34772	1115.3386	-527.31677	110.25723	1203.999	-488.74274	123.45543	1243.033
221	1.095	-504.52744	1055.1068	253.28333	-418.70541	994.52081	258.96756	-405.21927	1157.7683	741.01111	-319.03226	1100.8195	732.49176	-507.96573	1206.3466	1107.8303	-383.60751	901.64081	1294.3169	-362.33835	532.47949	1010.9314	-314.08066	545.46014	1110.7708	-527.34351	110.02322	1203.6449	-488.64236	123.8897	1242.4753
222	1.1	-505.9234	1043.8154	252.15477	-419.40991	985.27869	258.78256	-408.11526	1153.9907	739.03583	-322.18048	1096.5535	731.36139	-511.35699	1204.7284	1107.236	-381.81708	900.84406	1290.8512	-366.01688	532.85077	1008.3523	-313.77863	545.44757	1106.2606	-527.25073	109.76532	1203.4513	-488.51804	124.20775	1242.064
223	1.105	-506.86563	1032.4175	250.90903	-419.80658	974.71246	260.21371	-409.681	1150.1874	736.82001	-325.5134	1090.7822	730.18933	-514.3241	1202.7534	1106.2108	-379.98898	900.14923	1287.723	-368.95291	533.03198	1005.6851	-313.48941	545.17206	1102.1146	-527.67169	110.29008	1203.9706	-488.22937	124.47829	1241.8026
224	1.11	-508.15851	1020.8775	249.8838	-420.70355	963.63452	261.08316	-410.55798	1145.9442	734.20569	-329.20856	1083.8934	728.80542	-517.21442	1200.4807	1104.7823	-378.02896	899.84399	1284.9672	-371.74152	532.50537	1003.1194	-313.27167	544.86176	1098.2277	-527.33698	110.24296	1204.4764	-487.83167	124.53744	1241.8649
225	1.115	-508.89545	1007.8718	248.79305	-422.10172	952.05664	261.87292	-411.98825	1141.7626	731.59473	-332.57614	1077.0686	728.07343	-520.31165	1198.323	1103.1401	-375.85532	900.33545	1282.7643	-374.59961	531.95416	1001.3289	-312.90756	544.39008	1094.9297	-527.49353	110.06739	1205.4459	-487.27188	124.46997	1242.0349
226	1.12	-510.03217	994.25781	248.41003	-422.77463	939.63287	263.56934	-413.57895	1137.1373	728.77643	-337.10059	1069.8187	727.09326	-523.70953	1196.106	1101.2621	-373.42377	901.35815	1280.9219	-377.20892	530.88788	999.99353	-312.95477	543.7323	1091.6724	-527.46277	110.11367	1206.3893	-486.56021	124.36086	1242.3739
227	1.125	-511.24234	979.44775	248.63351	-423.56628	926.6178	265.46545	-415.4187	1132.348	726.19501	-340.71506	1063.1893	726.50153	-527.17517	1193.8911	1099.1471	-370.78839	902.64307	1279.0654	-378.73569	529.51178	998.45898	-312.87625	543.14728	1089.1316	-526.71124	109.43391	1207.2484	-485.77188	124.16634	1243.0223
228	1.13	-513.15338	963.87097	249.73299	-424.44547	912.95093	267.15463	-417.81976	1127.5499	724.02423	-344.21649	1056.5135	725.91431	-530.51947	1191.2047	1096.9078	-368.18741	904.04767	1277.541	-379.98987	527.93842	997.21057	-312.85394	542.30005	1086.8192	-526.01593	108.7665	1208.276	-484.7681	123.9361	1243.6956
229	1.135	-514.97083	946.54382	251.20551	-425.15579	898.54462	269.24414	-420.75699	1122.2238	722.18109	-347.89886	1049.9614	725.13586	-533.49237	1187.3339	1094.9227	-365.50223	905.45874	1276.0211	-381.01944	526.31598	996.25909	-312.82516	541.26245	1084.9042	-525.67023	108.71327	1210.0317	-483.70099	123.64935	1244.5126
230	1.14	-517.25983	928.59998	253.4725	-426.13843	883.50134	271.79437	-423.69128	1116.8558	720.42139	-351.41895	1043.3951	724.26312	-536.7088	1184.0708	1093.0187	-362.76944	906.79297	1274.4666	-381.50439	524.54755	995.17847	-312.86398	540.1463	1083.0656	-524.06311	107.78191	1210.9949	-482.74731	123.4828	1245.4341
231	1.145	-519.15009	909.52258	255.7494	-427.41196	867.79163	274.41754	-426.68817	1111.201	718.72253	-354.93158	1036.938	723.22919	-539.86108	1180.608	1090.9336	-360.12952	907.97949	1272.9823	-382.07443	523.01196	994.46838	-313.03372	538.91962	1081.5087	-524.3855	107.86835	1213.0759	-481.67725	123.10001	1246.2074
232	1.15	-522.63385	890.32751	259.77707	-428.49551	851.88544	278.20081	-430.20428	1105.3861	717.03845	-357.68484	1030.9672	722.20251	-542.78174	1176.9596	1089.0461	-357.70969	908.86359	1271.2915	-382.37885	521.05865	993.54211	-313.15033	537.58496	1079.9688	-523.63287	106.99318	1214.0122	-480.6759	122.56599	1246.8806
233	1.155	-525.62097	870.03259	264.01996	-430.09567	835.39929	281.96277	-433.82474	1099.4246	715.18604	-360.69583	1025.0518	721.01978	-545.61658	1173.3895	1087.3293	-355.28085	909.70135	1270.3708	-382.6087	519.38141	992.60321	-313.18323	536.26794	1078.5594	-523.25458	106.32327	1215.2506	-479.90189	122.03479	1247.5415
